<?xml version="1.0" encoding="UTF-8" standalone="no"?>
<!-- Created with Inkscape (http://www.inkscape.org/) -->

<svg
   width="185mm"
   height="100mm"
   viewBox="0 0 185 100"
   version="1.1"
   id="svg1"
   inkscape:version="1.3 (0e150ed6c4, 2023-07-21)"
   sodipodi:docname="candle-heatsink.svg"
   xmlns:inkscape="http://www.inkscape.org/namespaces/inkscape"
   xmlns:sodipodi="http://sodipodi.sourceforge.net/DTD/sodipodi-0.dtd"
   xmlns="http://www.w3.org/2000/svg"
   xmlns:svg="http://www.w3.org/2000/svg">
  <sodipodi:namedview
     id="namedview1"
     pagecolor="#505050"
     bordercolor="#eeeeee"
     borderopacity="1"
     inkscape:showpageshadow="0"
     inkscape:pageopacity="0"
     inkscape:pagecheckerboard="0"
     inkscape:deskcolor="#d1d1d1"
     inkscape:document-units="mm"
     inkscape:zoom="1.4396184"
     inkscape:cx="360.51221"
     inkscape:cy="209.77782"
     inkscape:window-width="1920"
     inkscape:window-height="1017"
     inkscape:window-x="2712"
     inkscape:window-y="1070"
     inkscape:window-maximized="1"
     inkscape:current-layer="layer1" />
  <defs
     id="defs1" />
  <g
     inkscape:label="Layer 1"
     inkscape:groupmode="layer"
     id="layer1">
    <path
       id="rect6376"
       style="fill:#000000;stroke-width:1.67146"
       d="M 5.9262533,0 C 2.6431136,0 0,2.6431136 0,5.9262533 V 84.073938 c 0,3.28314 2.6431136,5.926253 5.9262533,5.926253 H 84.073938 c 3.28314,0 5.926253,-2.643113 5.926253,-5.926253 V 5.9262533 C 90.000191,2.6431136 87.357078,0 84.073938,0 Z m 0.073897,4.4999837 a 1.5,1.5 0 0 1 1.49965,1.5001669 1.5,1.5 0 0 1 -1.49965,1.49965 1.5,1.5 0 0 1 -1.5001669,-1.49965 1.5,1.5 0 0 1 1.5001669,-1.5001669 z m 77.9998907,0 a 1.5,1.5 0 0 1 1.500167,1.5001669 1.5,1.5 0 0 1 -1.500167,1.49965 1.5,1.5 0 0 1 -1.500167,-1.49965 1.5,1.5 0 0 1 1.500167,-1.5001669 z M 44.999837,25.999963 A 19,19 0 0 1 64.000228,44.999837 19,19 0 0 1 44.999837,64.000228 19,19 0 0 1 25.999963,44.999837 19,19 0 0 1 44.999837,25.999963 Z M 6.0001506,82.499874 a 1.5,1.5 0 0 1 1.49965,1.500167 1.5,1.5 0 0 1 -1.49965,1.500167 1.5,1.5 0 0 1 -1.5001669,-1.500167 1.5,1.5 0 0 1 1.5001669,-1.500167 z m 77.9998904,0 a 1.5,1.5 0 0 1 1.500167,1.500167 1.5,1.5 0 0 1 -1.500167,1.500167 1.5,1.5 0 0 1 -1.500167,-1.500167 1.5,1.5 0 0 1 1.500167,-1.500167 z" />
    <text
       xml:space="preserve"
       style="font-style:normal;font-weight:normal;font-size:6.35px;line-height:1.25;font-family:sans-serif;fill:#ffff00;fill-opacity:1;stroke:none;stroke-width:0.264583"
       x="35.433823"
       y="95.17498"
       id="text6415"><tspan
         sodipodi:role="line"
         style="font-size:6.35px;fill:#ffff00;stroke-width:0.264583"
         x="35.433823"
         y="95.17498"
         id="tspan6419">Upper</tspan></text>
    <text
       xml:space="preserve"
       style="font-style:normal;font-weight:normal;font-size:6.35px;line-height:1.25;font-family:sans-serif;fill:#ffff00;fill-opacity:1;stroke:none;stroke-width:0.264583"
       x="129.69749"
       y="95.905235"
       id="text6415-6"><tspan
         sodipodi:role="line"
         style="font-size:6.35px;fill:#ffff00;stroke-width:0.264583"
         x="129.69749"
         y="95.905235"
         id="tspan6419-2">Base</tspan></text>
    <path
       id="rect6376-6"
       style="fill:#000000;stroke-width:1.67146"
       d="M 97.926322 0 C 94.643182 -6.266567e-16 92.000069 2.6431104 92.000069 5.9262533 L 92.000069 84.073938 C 92.000069 87.357081 94.643182 90.000191 97.926322 90.000191 L 176.07349 90.000191 C 179.35664 90.000191 181.99974 87.357081 181.99974 84.073938 L 181.99974 5.9262533 C 181.99974 2.6431104 179.35664 3.133293e-15 176.07349 0 L 97.926322 0 z M 98.00022 2.9998169 A 3 3 0 0 1 101.00004 6.0001506 A 3 3 0 0 1 98.00022 8.9999674 A 3 3 0 0 1 94.999886 6.0001506 A 3 3 0 0 1 98.00022 2.9998169 z M 176.00011 2.9998169 A 3 3 0 0 1 178.99993 6.0001506 A 3 3 0 0 1 176.00011 8.9999674 A 3 3 0 0 1 172.99978 6.0001506 A 3 3 0 0 1 176.00011 2.9998169 z M 98.00022 81.000224 A 3 3 0 0 1 101.00004 84.000041 A 3 3 0 0 1 98.00022 86.999858 A 3 3 0 0 1 94.999886 84.000041 A 3 3 0 0 1 98.00022 81.000224 z M 176.00011 81.000224 A 3 3 0 0 1 178.99993 84.000041 A 3 3 0 0 1 176.00011 86.999858 A 3 3 0 0 1 172.99978 84.000041 A 3 3 0 0 1 176.00011 81.000224 z " />
  </g>
</svg>
